<svg width = "0" height = "0">
  <symbol xmlns = "http://www.w3.org/2000/svg" viewBox = "0 0 24 24" id = "mi-chevronLeft">
    <path d = "M19.4 2.8L16.6 0l-12 12 12 12 2.8-2.8-9.2-9.2 9.2-9.2z"></path>
  </symbol>
  <symbol xmlns = "http://www.w3.org/2000/svg" viewBox = "0 0 24 24" id = "mi-chevronRight">
    <path d = "M7.4 0L4.6 2.8l9.2 9.2-9.2 9.2L7.4 24l12-12-12-12z"></path>
  </symbol>
  <symbol xmlns = "http://www.w3.org/2000/svg" viewBox = "0 0 24 24" id = "mi-close">
    <path d = "M24 2.4L21.6 0 12 9.6 2.4 0 0 2.4 9.6 12 0 21.6 2.4 24l9.6-9.6 9.6 9.6 2.4-2.4-9.6-9.6L24 2.4z"></path>
  </symbol>
  <symbol xmlns = "http://www.w3.org/2000/svg" viewBox = "0 0 24 24" id = "mi-gTranslate">
    <path d = "M21.6 3.6H10.7L9.6 0H2.4C1.1 0 0 1.1 0 2.4V18c0 1.3 1.1 2.4 2.4 2.4h8.4L12 24h9.6c1.3 0 2.4-1.1 2.4-2.4V6c0-1.3-1.1-2.4-2.4-2.4zM6.2 15.1c-2.7 0-4.9-2.2-4.9-4.9s2.2-4.9 4.9-4.9c1.2 0 2.4.4 3.3 1.3l.1.1-1.5 1.4L8 8c-.3-.3-.9-.7-1.8-.7-1.6 0-2.9 1.3-2.9 2.9s1.3 2.9 2.9 2.9c1.6 0 2.4-1 2.5-1.8H6.1V9.5h4.7v.1c0 .3.1.5.1.7 0 2.8-1.9 4.8-4.7 4.8zm7.2-2c.4.7.9 1.4 1.4 2l-.6.6-.8-2.6zm1-1h-1.2l-.4-1.2h4.8s-.4 1.6-1.9 3.3c-.6-.8-1-1.5-1.3-2.1zm8.4 9.5c0 .7-.5 1.2-1.2 1.2h-8.4l2.4-2.4-1-3.3 1.1-1.1 3.2 3.2.9-.9-3.3-3.2c1.1-1.2 1.9-2.7 2.3-4.2h1.5V9.6H16V8.4h-1.2v1.2h-2.4L11 4.8h10.6c.7 0 1.2.5 1.2 1.2v15.6z"></path>
  </symbol>
  <symbol xmlns = "http://www.w3.org/2000/svg" viewBox = "0 0 24 24" id = "mi-menu">
    <path d = "M0 20h24v-2.7H0V20zm0-6.7h24v-2.7H0v2.7zM0 4v2.7h24V4H0z"></path>
  </symbol>
  <symbol xmlns = "http://www.w3.org/2000/svg" viewBox = "0 0 24 24" id = "mi-mood">
    <path d = "M12 0C5.4 0 0 5.4 0 12s5.4 12 12 12 12-5.4 12-12S18.6 0 12 0zm0 21.6c-5.3 0-9.6-4.3-9.6-9.6S6.7 2.4 12 2.4s9.6 4.3 9.6 9.6-4.3 9.6-9.6 9.6zm4.2-10.8c1 0 1.8-.8 1.8-1.8s-.8-1.8-1.8-1.8-1.8.8-1.8 1.8.8 1.8 1.8 1.8zm-8.4 0c1 0 1.8-.8 1.8-1.8s-.8-1.8-1.8-1.8S6 8 6 9s.8 1.8 1.8 1.8zm4.2 7.8c2.8 0 5.2-1.8 6.1-4.2H5.9c.9 2.4 3.3 4.2 6.1 4.2z"></path>
  </symbol>
  <symbol xmlns = "http://www.w3.org/2000/svg" viewBox = "0 0 24 24" id = "mi-search">
    <path d = "M17.2 15.1h-1.1l-.4-.4c1.3-1.6 2.2-3.6 2.2-5.8C17.9 4 13.9 0 9 0S0 4 0 8.9s4 8.9 8.9 8.9c2.2 0 4.2-.8 5.8-2.2l.4.4v1.1L22 24l2-2-6.8-6.9zm-8.3 0c-3.4 0-6.2-2.8-6.2-6.2s2.8-6.2 6.2-6.2 6.2 2.8 6.2 6.2-2.8 6.2-6.2 6.2z"></path>
  </symbol>
  <symbol xmlns = "http://www.w3.org/2000/svg" viewBox = "0 0 24 24" id = "mi-viewCarousel">
    <path d = "M0 4.9h4.8v13.2H0V4.9zm6 15.6h12v-18H6v18zM8.4 4.9h7.2v13.2H8.4V4.9zm10.8 0H24v13.2h-4.8V4.9z"></path>
  </symbol>
</svg>